<mxfile host="" modified="2020-05-29T10:55:21.345Z" agent="5.0 (X11; Linux x86_64) AppleWebKit/537.36 (KHTML, like Gecko) Code/1.45.1 Chrome/78.0.3904.130 Electron/7.2.4 Safari/537.36" etag="DD673VqwE7QP4xsvw8ys" version="13.1.3">
    <diagram id="6hGFLwfOUW9BJ-s0fimq" name="Page-1">
        <mxGraphModel dx="1004" dy="771" grid="1" gridSize="10" guides="1" tooltips="1" connect="1" arrows="1" fold="1" page="1" pageScale="1" pageWidth="800" pageHeight="800" math="0" shadow="0">
            <root>
                <mxCell id="0"/>
                <mxCell id="1" parent="0"/>
                <mxCell id="31" value="" style="group" parent="1" vertex="1" connectable="0">
                    <mxGeometry x="303" y="271" width="194" height="249" as="geometry"/>
                </mxCell>
                <mxCell id="14" value="Facts&#10;industrial_production" style="swimlane;fontStyle=1;childLayout=stackLayout;horizontal=1;startSize=54;fillColor=#d80073;horizontalStack=0;resizeParent=1;resizeParentMax=0;resizeLast=0;collapsible=1;marginBottom=0;fontSize=18;fontFamily=Helvetica;strokeColor=#A50040;fontColor=#ffffff;" parent="31" vertex="1">
                    <mxGeometry width="194" height="177" as="geometry"/>
                </mxCell>
                <mxCell id="15" value="country_code" style="text;align=left;verticalAlign=top;spacingLeft=4;spacingRight=4;overflow=hidden;rotatable=0;points=[[0,0.5],[1,0.5]];portConstraint=eastwest;fontSize=18;fillColor=#fad9d5;strokeColor=#ae4132;fontColor=#000000;" parent="14" vertex="1">
                    <mxGeometry y="54" width="194" height="41" as="geometry"/>
                </mxCell>
                <mxCell id="16" value="industry_id" style="text;align=left;verticalAlign=top;spacingLeft=4;spacingRight=4;overflow=hidden;rotatable=0;points=[[0,0.5],[1,0.5]];portConstraint=eastwest;fontSize=18;fillColor=#fad9d5;strokeColor=#ae4132;fontColor=#000000;" parent="14" vertex="1">
                    <mxGeometry y="95" width="194" height="41" as="geometry"/>
                </mxCell>
                <mxCell id="17" value="year" style="text;align=left;verticalAlign=top;spacingLeft=4;spacingRight=4;overflow=hidden;rotatable=0;points=[[0,0.5],[1,0.5]];portConstraint=eastwest;fontSize=18;fillColor=#fad9d5;strokeColor=#ae4132;fontColor=#000000;" parent="14" vertex="1">
                    <mxGeometry y="136" width="194" height="41" as="geometry"/>
                </mxCell>
                <mxCell id="29" value="currency_code" style="text;align=left;verticalAlign=top;spacingLeft=4;spacingRight=4;overflow=hidden;rotatable=0;points=[[0,0.5],[1,0.5]];portConstraint=eastwest;fontSize=18;fillColor=#fad9d5;strokeColor=#ae4132;fontColor=#000000;" parent="31" vertex="1">
                    <mxGeometry y="177" width="194" height="41" as="geometry"/>
                </mxCell>
                <mxCell id="30" value="value" style="text;align=left;verticalAlign=top;spacingLeft=4;spacingRight=4;overflow=hidden;rotatable=0;points=[[0,0.5],[1,0.5]];portConstraint=eastwest;fontSize=18;fillColor=#fad9d5;strokeColor=#ae4132;fontColor=#000000;" parent="31" vertex="1">
                    <mxGeometry y="218" width="194" height="41" as="geometry"/>
                </mxCell>
                <mxCell id="37" value="Dim currencies" style="swimlane;fontStyle=1;childLayout=stackLayout;horizontal=1;startSize=26;fillColor=#6a00ff;horizontalStack=0;resizeParent=1;resizeParentMax=0;resizeLast=0;collapsible=1;marginBottom=0;fontSize=18;fontFamily=Helvetica;strokeColor=#3700CC;fontColor=#ffffff;" parent="1" vertex="1">
                    <mxGeometry x="560" y="120" width="176" height="149" as="geometry"/>
                </mxCell>
                <mxCell id="38" value="currency_code" style="text;align=left;verticalAlign=top;spacingLeft=4;spacingRight=4;overflow=hidden;rotatable=0;points=[[0,0.5],[1,0.5]];portConstraint=eastwest;fontSize=18;fillColor=#bac8d3;strokeColor=#23445d;fontColor=#000000;" parent="37" vertex="1">
                    <mxGeometry y="26" width="176" height="41" as="geometry"/>
                </mxCell>
                <mxCell id="40" value="to_dollars" style="text;align=left;verticalAlign=top;spacingLeft=4;spacingRight=4;overflow=hidden;rotatable=0;points=[[0,0.5],[1,0.5]];portConstraint=eastwest;fontSize=18;fillColor=#bac8d3;strokeColor=#23445d;fontColor=#000000;" parent="37" vertex="1">
                    <mxGeometry y="67" width="176" height="41" as="geometry"/>
                </mxCell>
                <mxCell id="39" value="date" style="text;align=left;verticalAlign=top;spacingLeft=4;spacingRight=4;overflow=hidden;rotatable=0;points=[[0,0.5],[1,0.5]];portConstraint=eastwest;fontSize=18;fillColor=#bac8d3;strokeColor=#23445d;fontColor=#000000;" parent="37" vertex="1">
                    <mxGeometry y="108" width="176" height="41" as="geometry"/>
                </mxCell>
                <mxCell id="32" value="Dim countries" style="swimlane;fontStyle=1;childLayout=stackLayout;horizontal=1;startSize=26;fillColor=#6a00ff;horizontalStack=0;resizeParent=1;resizeParentMax=0;resizeLast=0;collapsible=1;marginBottom=0;fontSize=18;fontFamily=Helvetica;strokeColor=#3700CC;fontColor=#ffffff;" parent="1" vertex="1">
                    <mxGeometry x="60" y="120" width="176" height="149" as="geometry"/>
                </mxCell>
                <mxCell id="33" value="country_code" style="text;align=left;verticalAlign=top;spacingLeft=4;spacingRight=4;overflow=hidden;rotatable=0;points=[[0,0.5],[1,0.5]];portConstraint=eastwest;fontSize=18;fillColor=#bac8d3;strokeColor=#23445d;fontColor=#000000;" parent="32" vertex="1">
                    <mxGeometry y="26" width="176" height="41" as="geometry"/>
                </mxCell>
                <mxCell id="34" value="year" style="text;align=left;verticalAlign=top;spacingLeft=4;spacingRight=4;overflow=hidden;rotatable=0;points=[[0,0.5],[1,0.5]];portConstraint=eastwest;fontSize=18;fillColor=#bac8d3;strokeColor=#23445d;fontColor=#000000;" parent="32" vertex="1">
                    <mxGeometry y="67" width="176" height="41" as="geometry"/>
                </mxCell>
                <mxCell id="35" value="country" style="text;align=left;verticalAlign=top;spacingLeft=4;spacingRight=4;overflow=hidden;rotatable=0;points=[[0,0.5],[1,0.5]];portConstraint=eastwest;fontSize=18;fillColor=#bac8d3;strokeColor=#23445d;fontColor=#000000;" parent="32" vertex="1">
                    <mxGeometry y="108" width="176" height="41" as="geometry"/>
                </mxCell>
                <mxCell id="42" value="emissions" style="text;align=left;verticalAlign=top;spacingLeft=4;spacingRight=4;overflow=hidden;rotatable=0;points=[[0,0.5],[1,0.5]];portConstraint=eastwest;fontSize=18;fillColor=#bac8d3;strokeColor=#23445d;fontColor=#000000;" parent="1" vertex="1">
                    <mxGeometry x="60" y="269" width="176" height="41" as="geometry"/>
                </mxCell>
                <mxCell id="44" value="Dim temperatures" style="swimlane;fontStyle=1;childLayout=stackLayout;horizontal=1;startSize=26;fillColor=#6a00ff;horizontalStack=0;resizeParent=1;resizeParentMax=0;resizeLast=0;collapsible=1;marginBottom=0;fontSize=18;fontFamily=Helvetica;strokeColor=#3700CC;fontColor=#ffffff;" parent="1" vertex="1">
                    <mxGeometry x="60" y="428" width="176" height="151" as="geometry"/>
                </mxCell>
                <mxCell id="45" value="country_code" style="text;align=left;verticalAlign=top;spacingLeft=4;spacingRight=4;overflow=hidden;rotatable=0;points=[[0,0.5],[1,0.5]];portConstraint=eastwest;fontSize=18;fillColor=#bac8d3;strokeColor=#23445d;fontColor=#000000;" parent="44" vertex="1">
                    <mxGeometry y="26" width="176" height="41" as="geometry"/>
                </mxCell>
                <mxCell id="46" value="date" style="text;align=left;verticalAlign=top;spacingLeft=4;spacingRight=4;overflow=hidden;rotatable=0;points=[[0,0.5],[1,0.5]];portConstraint=eastwest;fontSize=18;fillColor=#bac8d3;strokeColor=#23445d;fontColor=#000000;" parent="44" vertex="1">
                    <mxGeometry y="67" width="176" height="43" as="geometry"/>
                </mxCell>
                <mxCell id="47" value="year" style="text;align=left;verticalAlign=top;spacingLeft=4;spacingRight=4;overflow=hidden;rotatable=0;points=[[0,0.5],[1,0.5]];portConstraint=eastwest;fontSize=18;fillColor=#bac8d3;strokeColor=#23445d;fontColor=#000000;" parent="44" vertex="1">
                    <mxGeometry y="110" width="176" height="41" as="geometry"/>
                </mxCell>
                <mxCell id="49" value="average_temp" style="text;align=left;verticalAlign=top;spacingLeft=4;spacingRight=4;overflow=hidden;rotatable=0;points=[[0,0.5],[1,0.5]];portConstraint=eastwest;fontSize=18;fillColor=#bac8d3;strokeColor=#23445d;fontColor=#000000;" parent="1" vertex="1">
                    <mxGeometry x="60" y="579" width="176" height="41" as="geometry"/>
                </mxCell>
                <mxCell id="50" value="average_temp_&#10;uncertainty" style="text;align=left;verticalAlign=top;spacingLeft=4;spacingRight=4;overflow=hidden;rotatable=0;points=[[0,0.5],[1,0.5]];portConstraint=eastwest;fontSize=18;fillColor=#bac8d3;strokeColor=#23445d;fontColor=#000000;" parent="1" vertex="1">
                    <mxGeometry x="60" y="620" width="176" height="58" as="geometry"/>
                </mxCell>
                <mxCell id="51" value="Dim industries" style="swimlane;fontStyle=1;childLayout=stackLayout;horizontal=1;startSize=26;fillColor=#6a00ff;horizontalStack=0;resizeParent=1;resizeParentMax=0;resizeLast=0;collapsible=1;marginBottom=0;fontSize=18;fontFamily=Helvetica;strokeColor=#3700CC;fontColor=#ffffff;" parent="1" vertex="1">
                    <mxGeometry x="560" y="470" width="176" height="108" as="geometry"/>
                </mxCell>
                <mxCell id="52" value="industry_id" style="text;align=left;verticalAlign=top;spacingLeft=4;spacingRight=4;overflow=hidden;rotatable=0;points=[[0,0.5],[1,0.5]];portConstraint=eastwest;fontSize=18;fillColor=#bac8d3;strokeColor=#23445d;fontColor=#000000;" parent="51" vertex="1">
                    <mxGeometry y="26" width="176" height="41" as="geometry"/>
                </mxCell>
                <mxCell id="53" value="description" style="text;align=left;verticalAlign=top;spacingLeft=4;spacingRight=4;overflow=hidden;rotatable=0;points=[[0,0.5],[1,0.5]];portConstraint=eastwest;fontSize=18;fillColor=#bac8d3;strokeColor=#23445d;fontColor=#000000;" parent="51" vertex="1">
                    <mxGeometry y="67" width="176" height="41" as="geometry"/>
                </mxCell>
                <mxCell id="54" value="year" style="text;align=left;verticalAlign=top;spacingLeft=4;spacingRight=4;overflow=hidden;rotatable=0;points=[[0,0.5],[1,0.5]];portConstraint=eastwest;fontSize=18;fillColor=#bac8d3;strokeColor=#23445d;fontColor=#000000;" vertex="1" parent="1">
                    <mxGeometry x="560" y="269" width="176" height="41" as="geometry"/>
                </mxCell>
            </root>
        </mxGraphModel>
    </diagram>
</mxfile>